<mxfile host="app.diagrams.net" agent="Mozilla/5.0 (Macintosh; Intel Mac OS X 10_15_7) AppleWebKit/537.36 (KHTML, like Gecko) Chrome/136.0.0.0 Safari/537.36" version="27.0.2">
  <diagram name="Page-1" id="m9oyf4ew1tzIrxiQ4zaV">
    <mxGraphModel dx="1057" dy="474" grid="1" gridSize="10" guides="1" tooltips="1" connect="1" arrows="1" fold="1" page="1" pageScale="1" pageWidth="1169" pageHeight="827" math="0" shadow="0">
      <root>
        <mxCell id="0" />
        <mxCell id="1" parent="0" />
        <mxCell id="KYDLABNmES9TerBo19zT-1" value="Account Setup" style="swimlane;whiteSpace=wrap;hachureGap=4;fontFamily=Architects Daughter;fontSource=https%3A%2F%2Ffonts.googleapis.com%2Fcss%3Ffamily%3DArchitects%2BDaughter;labelBackgroundColor=none;textShadow=1;html=1;labelBorderColor=none;fillColor=#FAE5C7;strokeColor=#0F8B8D;fontColor=#143642;sketch=1;curveFitting=1;jiggle=2;shadow=1;rounded=1;" vertex="1" parent="1">
          <mxGeometry x="30" y="59" width="265" height="110" as="geometry" />
        </mxCell>
        <mxCell id="KYDLABNmES9TerBo19zT-14" value="&lt;div style=&quot;color: rgb(0, 0, 0); text-wrap-mode: wrap; text-align: justify;&quot;&gt;&lt;span style=&quot;color: light-dark(rgb(0, 0, 0), rgb(255, 255, 255)); text-wrap-mode: nowrap;&quot;&gt;- Create Test Account i&lt;/span&gt;&lt;span style=&quot;color: light-dark(rgb(0, 0, 0), rgb(255, 255, 255)); text-wrap-mode: nowrap;&quot;&gt;n network Side&lt;/span&gt;&lt;/div&gt;&lt;div style=&quot;color: rgb(0, 0, 0); text-wrap-mode: wrap; text-align: justify;&quot;&gt;&lt;span style=&quot;text-wrap-mode: nowrap; color: light-dark(rgb(0, 0, 0), rgb(255, 255, 255));&quot;&gt;- Create/Setup Client in SSC UI&lt;/span&gt;&lt;/div&gt;&lt;div style=&quot;text-align: right; color: rgb(0, 0, 0); text-wrap-mode: wrap;&quot;&gt;&lt;span style=&quot;text-wrap-mode: nowrap; color: light-dark(rgb(0, 0, 0), rgb(255, 255, 255));&quot;&gt;- Start with adding Google and Bing account&lt;/span&gt;&lt;/div&gt;&lt;div style=&quot;text-align: right; color: rgb(0, 0, 0); text-wrap-mode: wrap;&quot;&gt;&lt;span style=&quot;text-wrap-mode: nowrap; color: light-dark(rgb(0, 0, 0), rgb(255, 255, 255));&quot;&gt;&lt;br&gt;&lt;/span&gt;&lt;/div&gt;&lt;div style=&quot;color: rgb(0, 0, 0); text-wrap-mode: wrap;&quot;&gt;&lt;span style=&quot;text-wrap-mode: nowrap; color: light-dark(rgb(0, 0, 0), rgb(255, 255, 255));&quot;&gt;(One time manual setup for now)&lt;/span&gt;&lt;/div&gt;" style="text;html=1;align=center;verticalAlign=middle;resizable=0;points=[];autosize=1;strokeColor=none;fillColor=none;fontFamily=Architects Daughter;fontSource=https%3A%2F%2Ffonts.googleapis.com%2Fcss%3Ffamily%3DArchitects%2BDaughter;labelBackgroundColor=none;fontColor=#143642;sketch=1;curveFitting=1;jiggle=2;shadow=1;rounded=1;" vertex="1" parent="KYDLABNmES9TerBo19zT-1">
          <mxGeometry x="-5" y="20" width="270" height="90" as="geometry" />
        </mxCell>
        <mxCell id="KYDLABNmES9TerBo19zT-15" value="Campaign Setup" style="swimlane;whiteSpace=wrap;hachureGap=4;fontFamily=Architects Daughter;fontSource=https%3A%2F%2Ffonts.googleapis.com%2Fcss%3Ffamily%3DArchitects%2BDaughter;labelBackgroundColor=none;textShadow=1;html=1;labelBorderColor=none;fillColor=#FAE5C7;strokeColor=#0F8B8D;fontColor=#143642;sketch=1;curveFitting=1;jiggle=2;shadow=1;rounded=1;" vertex="1" parent="1">
          <mxGeometry x="340" y="59" width="265" height="110" as="geometry" />
        </mxCell>
        <mxCell id="KYDLABNmES9TerBo19zT-16" value="&lt;div style=&quot;color: rgb(0, 0, 0); text-wrap-mode: wrap; text-align: justify;&quot;&gt;&lt;span style=&quot;color: light-dark(rgb(0, 0, 0), rgb(255, 255, 255)); text-wrap-mode: nowrap;&quot;&gt;- Create Campaign i&lt;/span&gt;&lt;span style=&quot;color: light-dark(rgb(0, 0, 0), rgb(255, 255, 255)); text-wrap-mode: nowrap;&quot;&gt;n network Side&lt;/span&gt;&lt;/div&gt;&lt;div style=&quot;color: rgb(0, 0, 0); text-wrap-mode: wrap; text-align: justify;&quot;&gt;&lt;span style=&quot;text-wrap-mode: nowrap; color: light-dark(rgb(0, 0, 0), rgb(255, 255, 255));&quot;&gt;- Sync campaign data from network side&lt;/span&gt;&lt;/div&gt;&lt;div style=&quot;color: rgb(0, 0, 0); text-align: justify;&quot;&gt;&amp;nbsp; to SSC Backend Tables&lt;/div&gt;" style="text;html=1;align=center;verticalAlign=middle;resizable=0;points=[];autosize=1;strokeColor=none;fillColor=none;fontFamily=Architects Daughter;fontSource=https%3A%2F%2Ffonts.googleapis.com%2Fcss%3Ffamily%3DArchitects%2BDaughter;labelBackgroundColor=none;fontColor=#143642;sketch=1;curveFitting=1;jiggle=2;shadow=1;rounded=1;" vertex="1" parent="KYDLABNmES9TerBo19zT-15">
          <mxGeometry y="35" width="260" height="60" as="geometry" />
        </mxCell>
        <mxCell id="KYDLABNmES9TerBo19zT-17" value="Test Data Setup" style="swimlane;whiteSpace=wrap;hachureGap=4;fontFamily=Architects Daughter;fontSource=https%3A%2F%2Ffonts.googleapis.com%2Fcss%3Ffamily%3DArchitects%2BDaughter;labelBackgroundColor=none;textShadow=1;html=1;labelBorderColor=none;fillColor=#FAE5C7;strokeColor=#0F8B8D;fontColor=#143642;sketch=1;curveFitting=1;jiggle=2;shadow=1;rounded=1;" vertex="1" parent="1">
          <mxGeometry x="660" y="59" width="265" height="110" as="geometry" />
        </mxCell>
        <mxCell id="KYDLABNmES9TerBo19zT-18" value="&lt;div style=&quot;color: rgb(0, 0, 0); text-wrap-mode: wrap; text-align: justify;&quot;&gt;&lt;span style=&quot;color: light-dark(rgb(0, 0, 0), rgb(255, 255, 255)); text-wrap-mode: nowrap;&quot;&gt;- Generate click data and revenue data&lt;/span&gt;&lt;/div&gt;&lt;div style=&quot;color: rgb(0, 0, 0); text-wrap-mode: wrap; text-align: justify;&quot;&gt;&lt;span style=&quot;text-wrap-mode: nowrap; color: light-dark(rgb(0, 0, 0), rgb(255, 255, 255));&quot;&gt;- Put the test data to NAS Location&lt;/span&gt;&lt;/div&gt;&lt;div style=&quot;color: rgb(0, 0, 0); text-wrap-mode: wrap;&quot;&gt;&lt;span style=&quot;text-wrap-mode: nowrap; color: light-dark(rgb(0, 0, 0), rgb(255, 255, 255));&quot;&gt;&lt;br&gt;&lt;/span&gt;&lt;/div&gt;&lt;div style=&quot;color: rgb(0, 0, 0); text-wrap-mode: wrap;&quot;&gt;&lt;span style=&quot;text-wrap-mode: nowrap; color: light-dark(rgb(0, 0, 0), rgb(255, 255, 255));&quot;&gt;(Jobs should pick up this data and&amp;nbsp;&lt;/span&gt;&lt;/div&gt;&lt;div style=&quot;color: rgb(0, 0, 0); text-wrap-mode: wrap;&quot;&gt;&lt;span style=&quot;text-wrap-mode: nowrap; color: light-dark(rgb(0, 0, 0), rgb(255, 255, 255));&quot;&gt;update required table)&lt;/span&gt;&lt;/div&gt;" style="text;html=1;align=center;verticalAlign=middle;resizable=0;points=[];autosize=1;strokeColor=none;fillColor=none;fontFamily=Architects Daughter;fontSource=https%3A%2F%2Ffonts.googleapis.com%2Fcss%3Ffamily%3DArchitects%2BDaughter;labelBackgroundColor=none;fontColor=#143642;sketch=1;curveFitting=1;jiggle=2;shadow=1;rounded=1;" vertex="1" parent="KYDLABNmES9TerBo19zT-17">
          <mxGeometry x="10" y="20" width="240" height="90" as="geometry" />
        </mxCell>
        <mxCell id="KYDLABNmES9TerBo19zT-19" value="Objective Setup" style="swimlane;whiteSpace=wrap;hachureGap=4;fontFamily=Architects Daughter;fontSource=https%3A%2F%2Ffonts.googleapis.com%2Fcss%3Ffamily%3DArchitects%2BDaughter;labelBackgroundColor=none;textShadow=1;html=1;labelBorderColor=none;fillColor=#FAE5C7;strokeColor=#0F8B8D;fontColor=#143642;sketch=1;curveFitting=1;jiggle=2;shadow=1;rounded=1;" vertex="1" parent="1">
          <mxGeometry x="660" y="229" width="270" height="90" as="geometry" />
        </mxCell>
        <mxCell id="KYDLABNmES9TerBo19zT-20" value="&lt;div style=&quot;color: rgb(0, 0, 0); text-wrap-mode: wrap; text-align: justify;&quot;&gt;&lt;span style=&quot;color: light-dark(rgb(0, 0, 0), rgb(255, 255, 255)); text-wrap-mode: nowrap;&quot;&gt;- Create Objective tobe assigned to portfoli&lt;/span&gt;&lt;/div&gt;&lt;div style=&quot;color: rgb(0, 0, 0); text-wrap-mode: wrap; text-align: justify;&quot;&gt;&lt;span style=&quot;text-wrap-mode: nowrap; color: light-dark(rgb(0, 0, 0), rgb(255, 255, 255));&quot;&gt;- Sync transaction properties to the network&lt;/span&gt;&lt;/div&gt;" style="text;html=1;align=center;verticalAlign=middle;resizable=0;points=[];autosize=1;strokeColor=none;fillColor=none;fontFamily=Architects Daughter;fontSource=https%3A%2F%2Ffonts.googleapis.com%2Fcss%3Ffamily%3DArchitects%2BDaughter;labelBackgroundColor=none;fontColor=#143642;sketch=1;curveFitting=1;jiggle=2;shadow=1;rounded=1;" vertex="1" parent="KYDLABNmES9TerBo19zT-19">
          <mxGeometry x="-4" y="31" width="280" height="40" as="geometry" />
        </mxCell>
        <mxCell id="KYDLABNmES9TerBo19zT-21" value="Portfolio Setup" style="swimlane;whiteSpace=wrap;hachureGap=4;fontFamily=Architects Daughter;fontSource=https%3A%2F%2Ffonts.googleapis.com%2Fcss%3Ffamily%3DArchitects%2BDaughter;labelBackgroundColor=none;textShadow=1;html=1;labelBorderColor=none;fillColor=#FAE5C7;strokeColor=#0F8B8D;fontColor=#143642;sketch=1;curveFitting=1;jiggle=2;shadow=1;rounded=1;" vertex="1" parent="1">
          <mxGeometry x="336" y="216" width="274" height="113" as="geometry" />
        </mxCell>
        <mxCell id="KYDLABNmES9TerBo19zT-22" value="&lt;div style=&quot;color: rgb(0, 0, 0); text-wrap-mode: wrap; text-align: justify;&quot;&gt;&lt;span style=&quot;color: light-dark(rgb(0, 0, 0), rgb(255, 255, 255)); text-wrap-mode: nowrap;&quot;&gt;- Create Portfolio, assign budget, campaigns&lt;/span&gt;&lt;/div&gt;&lt;div style=&quot;color: rgb(0, 0, 0); text-wrap-mode: wrap; text-align: justify;&quot;&gt;&lt;span style=&quot;color: light-dark(rgb(0, 0, 0), rgb(255, 255, 255)); text-wrap-mode: nowrap;&quot;&gt;&amp;nbsp; and objective.&lt;/span&gt;&lt;/div&gt;&lt;div style=&quot;color: rgb(0, 0, 0); text-wrap-mode: wrap; text-align: justify;&quot;&gt;&lt;span style=&quot;text-wrap-mode: nowrap; color: light-dark(rgb(0, 0, 0), rgb(255, 255, 255));&quot;&gt;- Sync portfolio configuration data to&amp;nbsp;&lt;/span&gt;&lt;/div&gt;&lt;div style=&quot;color: rgb(0, 0, 0); text-wrap-mode: wrap; text-align: justify;&quot;&gt;&lt;span style=&quot;text-wrap-mode: nowrap; color: light-dark(rgb(0, 0, 0), rgb(255, 255, 255));&quot;&gt;&amp;nbsp; required tables and network&lt;/span&gt;&lt;span style=&quot;color: light-dark(rgb(0, 0, 0), rgb(255, 255, 255)); text-wrap-mode: nowrap; background-color: light-dark(#ffffff, var(--ge-dark-color, #121212));&quot;&gt;side&lt;/span&gt;&lt;/div&gt;&lt;div style=&quot;color: rgb(0, 0, 0); text-wrap-mode: wrap; text-align: justify;&quot;&gt;&lt;br&gt;&lt;/div&gt;" style="text;html=1;align=center;verticalAlign=middle;resizable=0;points=[];autosize=1;strokeColor=none;fillColor=none;fontFamily=Architects Daughter;fontSource=https%3A%2F%2Ffonts.googleapis.com%2Fcss%3Ffamily%3DArchitects%2BDaughter;labelBackgroundColor=none;fontColor=#143642;rounded=1;sketch=1;curveFitting=1;jiggle=2;shadow=1;" vertex="1" parent="KYDLABNmES9TerBo19zT-21">
          <mxGeometry x="-5" y="24" width="270" height="90" as="geometry" />
        </mxCell>
        <mxCell id="KYDLABNmES9TerBo19zT-24" value="Run Algo Models" style="swimlane;whiteSpace=wrap;hachureGap=4;fontFamily=Architects Daughter;fontSource=https%3A%2F%2Ffonts.googleapis.com%2Fcss%3Ffamily%3DArchitects%2BDaughter;labelBackgroundColor=none;textShadow=1;html=1;labelBorderColor=none;fillColor=#FAE5C7;strokeColor=#0F8B8D;fontColor=#143642;sketch=1;curveFitting=1;jiggle=2;shadow=1;rounded=1;" vertex="1" parent="1">
          <mxGeometry x="30" y="219" width="265" height="110" as="geometry" />
        </mxCell>
        <mxCell id="KYDLABNmES9TerBo19zT-25" value="&lt;div style=&quot;color: rgb(0, 0, 0); text-wrap-mode: wrap; text-align: justify;&quot;&gt;&lt;span style=&quot;color: light-dark(rgb(0, 0, 0), rgb(255, 255, 255)); text-wrap-mode: nowrap;&quot;&gt;- Run Algo Models with the given test data&lt;/span&gt;&lt;/div&gt;&lt;div style=&quot;text-align: justify; text-wrap-mode: wrap; color: rgb(0, 0, 0);&quot;&gt;&lt;span style=&quot;text-wrap-mode: nowrap; color: light-dark(rgb(0, 0, 0), rgb(255, 255, 255));&quot;&gt;- Materialized Ads, Update Portfolio adids,&lt;/span&gt;&lt;/div&gt;&lt;div style=&quot;text-align: justify; text-wrap-mode: wrap; color: rgb(0, 0, 0);&quot;&gt;&lt;span style=&quot;text-wrap-mode: nowrap; color: light-dark(rgb(0, 0, 0), rgb(255, 255, 255));&quot;&gt;&amp;nbsp; Click model, revenue model.&lt;/span&gt;&lt;/div&gt;&lt;div style=&quot;text-align: justify; text-wrap-mode: wrap; color: rgb(0, 0, 0);&quot;&gt;&lt;span style=&quot;color: light-dark(rgb(0, 0, 0), rgb(255, 255, 255)); text-wrap-mode: nowrap; text-align: right; background-color: light-dark(#ffffff, var(--ge-dark-color, #121212));&quot;&gt;- Updat required tables&lt;/span&gt;&lt;/div&gt;" style="text;html=1;align=center;verticalAlign=middle;resizable=0;points=[];autosize=1;strokeColor=none;fillColor=none;fontFamily=Architects Daughter;fontSource=https%3A%2F%2Ffonts.googleapis.com%2Fcss%3Ffamily%3DArchitects%2BDaughter;labelBackgroundColor=none;fontColor=#143642;sketch=1;curveFitting=1;jiggle=2;shadow=1;rounded=1;" vertex="1" parent="KYDLABNmES9TerBo19zT-24">
          <mxGeometry y="30" width="260" height="70" as="geometry" />
        </mxCell>
        <mxCell id="KYDLABNmES9TerBo19zT-26" value="" style="edgeStyle=orthogonalEdgeStyle;rounded=1;hachureGap=4;orthogonalLoop=1;jettySize=auto;html=1;strokeColor=#A8201A;fontFamily=Architects Daughter;fontSource=https%3A%2F%2Ffonts.googleapis.com%2Fcss%3Ffamily%3DArchitects%2BDaughter;fontColor=default;fillColor=#FAE5C7;labelBackgroundColor=none;sketch=1;curveFitting=1;jiggle=2;shadow=1;" edge="1" parent="1">
          <mxGeometry relative="1" as="geometry">
            <mxPoint x="296" y="124" as="sourcePoint" />
            <mxPoint x="340" y="124" as="targetPoint" />
          </mxGeometry>
        </mxCell>
        <mxCell id="KYDLABNmES9TerBo19zT-27" value="" style="edgeStyle=orthogonalEdgeStyle;rounded=1;hachureGap=4;orthogonalLoop=1;jettySize=auto;html=1;strokeColor=#A8201A;fontFamily=Architects Daughter;fontSource=https%3A%2F%2Ffonts.googleapis.com%2Fcss%3Ffamily%3DArchitects%2BDaughter;fontColor=default;fillColor=#FAE5C7;labelBackgroundColor=none;sketch=1;curveFitting=1;jiggle=2;shadow=1;" edge="1" parent="1" source="KYDLABNmES9TerBo19zT-16">
          <mxGeometry relative="1" as="geometry">
            <mxPoint x="660" y="124" as="targetPoint" />
          </mxGeometry>
        </mxCell>
        <mxCell id="KYDLABNmES9TerBo19zT-28" value="" style="edgeStyle=orthogonalEdgeStyle;rounded=1;hachureGap=4;orthogonalLoop=1;jettySize=auto;html=1;strokeColor=#A8201A;fontFamily=Architects Daughter;fontSource=https%3A%2F%2Ffonts.googleapis.com%2Fcss%3Ffamily%3DArchitects%2BDaughter;fontColor=default;fillColor=#FAE5C7;entryX=0.478;entryY=0.011;entryDx=0;entryDy=0;entryPerimeter=0;labelBackgroundColor=none;sketch=1;curveFitting=1;jiggle=2;shadow=1;" edge="1" parent="1" source="KYDLABNmES9TerBo19zT-18" target="KYDLABNmES9TerBo19zT-19">
          <mxGeometry relative="1" as="geometry">
            <mxPoint x="790" y="219" as="targetPoint" />
          </mxGeometry>
        </mxCell>
        <mxCell id="KYDLABNmES9TerBo19zT-29" value="" style="edgeStyle=orthogonalEdgeStyle;rounded=1;hachureGap=4;orthogonalLoop=1;jettySize=auto;html=1;strokeColor=#A8201A;fontFamily=Architects Daughter;fontSource=https%3A%2F%2Ffonts.googleapis.com%2Fcss%3Ffamily%3DArchitects%2BDaughter;fontColor=default;fillColor=#FAE5C7;labelBackgroundColor=none;sketch=1;curveFitting=1;jiggle=2;shadow=1;" edge="1" parent="1">
          <mxGeometry relative="1" as="geometry">
            <mxPoint x="660" y="284" as="sourcePoint" />
            <mxPoint x="610" y="285" as="targetPoint" />
          </mxGeometry>
        </mxCell>
        <mxCell id="KYDLABNmES9TerBo19zT-30" value="" style="edgeStyle=orthogonalEdgeStyle;rounded=1;hachureGap=4;orthogonalLoop=1;jettySize=auto;html=1;strokeColor=#A8201A;fontFamily=Architects Daughter;fontSource=https%3A%2F%2Ffonts.googleapis.com%2Fcss%3Ffamily%3DArchitects%2BDaughter;fontColor=default;fillColor=#FAE5C7;labelBackgroundColor=none;sketch=1;curveFitting=1;jiggle=2;shadow=1;" edge="1" parent="1" target="KYDLABNmES9TerBo19zT-25">
          <mxGeometry relative="1" as="geometry">
            <mxPoint x="340" y="284" as="sourcePoint" />
          </mxGeometry>
        </mxCell>
        <mxCell id="KYDLABNmES9TerBo19zT-33" value="User Journey Automation" style="text;html=1;align=center;verticalAlign=middle;whiteSpace=wrap;rounded=0;fontFamily=Architects Daughter;fontSource=https%3A%2F%2Ffonts.googleapis.com%2Fcss%3Ffamily%3DArchitects%2BDaughter;fontSize=40;textShadow=1;labelBorderColor=none;fillColor=#FAE5C7;strokeColor=none;shadow=0;sketch=1;curveFitting=1;jiggle=2;glass=0;labelBackgroundColor=none;fontColor=#143642;" vertex="1" parent="1">
          <mxGeometry x="207" y="10" width="500" height="30" as="geometry" />
        </mxCell>
      </root>
    </mxGraphModel>
  </diagram>
</mxfile>
